{"title":"The Recruit - S02E04","uid":15555988,"size":1317839809,"categoryP":"video","categoryS":"tv_shows","magnet":"?xt=urn:btih:72dc3462b8a6a25800be3ad2cd2449d6545f18d6&amp;dn=The+Recruit+-+S02E04&amp;tr=udp%3A%2F%2Ftracker.leechers-paradise.org%3A6969&amp;tr=udp%3A%2F%2Fzer0day.ch%3A1337&amp;tr=udp%3A%2F%2Fopen.demonii.com%3A1337&amp;tr=udp%3A%2F%2Ftracker.coppersurfer.tk%3A6969&amp;tr=udp%3A%2F%2Fexodus.desync.com%3A6969","seeders":5,"leechers":1,"uploader":"Bullrout","files":1,"time":1471070711,"description":"The Recruit - S02E04\r\n\r\nHandling Pressure is what 12 remaining Recruits face this week, with help from some of the best sporting greats. The Recruits tight-rope across Etihad Stadium and battle it out with the Summer of Surf Iron Women.\r\n\r\nComplete name                            : The Recruit - S02E04.mkv\r\nFormat                                   : Matroska\r\nFormat version                           : Version 4 / Version 2\r\nFile size                                : 1.23 GiB\r\nDuration                                 : 53mn 5s\r\nOverall bit rate mode                    : Variable\r\nOverall bit rate                         : 3 310 Kbps\r\nEncoded date                             : UTC 2016-08-12 04:15:18\r\nWriting application                      : mkvmerge v9.3.1 ('Mask Machine') 64bit\r\nWriting library                          : libebml v1.3.4 + libmatroska v1.4.5\r\n\r\nVideo\r\nID                                       : 2\r\nFormat                                   : AVC\r\nFormat/Info                              : Advanced Video Codec\r\nFormat profile                           :   \r\nFormat settings, CABAC                   : Yes\r\nFormat settings, ReFrames                : 3 frames\r\nCodec ID                                 : V_MPEG4/ISO/AVC\r\nDuration                                 : 53mn 5s\r\nBit rate mode                            : Variable\r\nBit rate                                 : 2 924 Kbps\r\nMaximum bit rate                         : 3 000 Kbps\r\nWidth                                    : 1 280 pixels\r\nHeight                                   : 720 pixels\r\nDisplay aspect ratio                     : 16:9\r\nFrame rate mode                          : Constant\r\nFrame rate                               : 25.000 fps\r\nStandard                                 : PAL\r\nColor space                              : YUV\r\nChroma subsampling                       : 4:2:0\r\nBit depth                                : 8 bits\r\nScan type                                : Progressive\r\nBits/(Pixel*Frame)                       : 0.127\r\nStream size                              : 1.08 GiB (88%)\r\nWriting library                          : x264 core 112\r\nDefault                                  : Yes\r\nForced                                   : No\r\nColor range                              : Limited\r\nColor primaries                          : BT.709\r\nTransfer characteristics                 : BT.709\r\nMatrix coefficients                      : BT.709\r\n\r\nAudio\r\nID                                       : 1\r\nFormat                                   : AC-3\r\nFormat/Info                              : Audio Coding 3\r\nMode extension                           : CM (complete main)\r\nFormat settings, Endianness              : Big\r\nCodec ID                                 : A_AC3\r\nDuration                                 : 53mn 5s\r\nBit rate mode                            : Constant\r\nBit rate                                 : 384 Kbps\r\nChannel(s)                               : 6 channels\r\nChannel positions                        : Front: L C R, Side: L R, LFE\r\nSampling rate                            : 48.0 KHz\r\nFrame rate                               : 31.250 fps (1536 spf)\r\nCompression mode                         : Lossy\r\nStream size                              : 146 MiB (12%)\r\nDefault                                  : Yes\r\nForced                                   : No","torrent":{"xt":"urn:btih:72dc3462b8a6a25800be3ad2cd2449d6545f18d6","amp;dn":"The+Recruit+-+S02E04","amp;tr":["udp%3A%2F%2Ftracker.leechers-paradise.org%3A6969","udp%3A%2F%2Fzer0day.ch%3A1337","udp%3A%2F%2Fopen.demonii.com%3A1337","udp%3A%2F%2Ftracker.coppersurfer.tk%3A6969","udp%3A%2F%2Fexodus.desync.com%3A6969"],"infoHash":"72dc3462b8a6a25800be3ad2cd2449d6545f18d6","infoHashBuffer":{"type":"Buffer","data":[114,220,52,98,184,166,162,88,0,190,58,210,205,36,73,214,84,95,24,214]},"announce":[],"urlList":[]}}